# xmcd
#
# Track frame offsets: 
#        150
#        15798
#        31101
#        55525
#        73799
#        95735
#        110696
#        134304
#        148819
#        166275
#        183429
#        205288
#        222492
#        228442
#
# Disc length: 3344 seconds
#
# Revision: 2
# Processed by: cddbd v1.5.2PL0 Copyright (c) Steve Scherf et al.
# Submitted via: ExactAudioCopy v0.99pb5
#
DISCID=c60d0e0e
DTITLE=Peter Frampton - Fingerprints
DYEAR=2006
DGENRE=Rock
TTITLE0=Boot It Up
TTITLE1=Ida Y Vuelta (Out and Back)
TTITLE2=Black Hole Sun
TTITLE3=Float
TTITLE4=My Cup of Tea
TTITLE5=Shewango Way
TTITLE6=Blooze
TTITLE7=Cornerstones
TTITLE8=Grab a Chicken (Put It Back)
TTITLE9=Double Nickels
TTITLE10=Smoky
TTITLE11=Blowin' Smoke
TTITLE12=Oh When...
TTITLE13=Souvenirs De Nos Peres (Memories of Our Fathers)
EXTD=
EXTT0=
EXTT1=
EXTT2=
EXTT3=
EXTT4=
EXTT5=
EXTT6=
EXTT7=
EXTT8=
EXTT9=
EXTT10=
EXTT11=
EXTT12=
EXTT13=
PLAYORDER=
